<svg id="Capa_1" enable-background="new 0 0 512 512" height="512" viewBox="0 0 512 512" width="512" xmlns="http://www.w3.org/2000/svg"><g><path d="m418.506 189.204c-26.456-26.456-69.35-26.456-95.807 0l-55.318 55.318 45.329 50.478z" fill="#ffb4a2"/><path d="m299.336 10.519c-14.025-14.025-36.764-14.025-50.789 0s-14.025 36.764 0 50.789l50.982 50.982 14.853-60.29-14.852-41.287z" fill="#72bbff"/><path d="m350.513 10.519c-14.025-14.025-36.764-14.025-50.789 0l-.194.194v101.577l50.982-50.982c14.026-14.025 14.026-36.765.001-50.789z" fill="#3ba9ff"/><path d="m299.53 212.373 34.852 165.627-34.852 134h-103.018v-41.925l-93.666-93.666c-12.469-12.469-12.469-32.685 0-45.154l.01-.01c12.469-12.469 32.685-12.469 45.154 0l-15.297-15.297c-12.469-12.469-12.469-32.685 0-45.154l.01-.01c12.469-12.469 32.685-12.469 45.154 0l-6.467-6.467c-12.469-12.469-12.469-32.685 0-45.154l.01-.01c12.469-12.469 32.685-12.469 45.154 0l-89.641-89.641c-12.472-12.472-12.425-32.646.047-45.117 12.472-12.472 32.645-12.518 45.117-.047z" fill="#ffccbd"/><path d="m400.893 395.966c0-52.363-20.739-102.595-57.68-139.707l-43.684-43.886v299.627h101.363v-116.034z" fill="#ffbda9"/></g></svg>