<svg id="Capa_1" enable-background="new 0 0 512 512" height="512" viewBox="0 0 512 512" width="512" xmlns="http://www.w3.org/2000/svg" xmlns:xlink="http://www.w3.org/1999/xlink"><linearGradient id="SVGID_1_" gradientUnits="userSpaceOnUse" x1="256" x2="256" y1="512" y2="0"><stop offset="0" stop-color="#addcff"/><stop offset=".5028" stop-color="#eaf6ff"/><stop offset="1" stop-color="#eaf6ff"/></linearGradient><linearGradient id="SVGID_2_" gradientUnits="userSpaceOnUse" x1="277.854" x2="277.854" y1="407" y2="105"><stop offset="0" stop-color="#00c0ff"/><stop offset="1" stop-color="#5558ff"/></linearGradient><g><path d="m512 256c0 141.385-114.615 256-256 256s-256-114.615-256-256 114.615-256 256-256 256 114.615 256 256z" fill="url(#SVGID_1_)"/><path d="m206.043 151.269c-10.585-10.585-10.585-27.746 0-38.331 10.585-10.585 27.746-10.585 38.331 0l8.214 8.214 8.214-8.214c10.585-10.585 27.746-10.585 38.331 0 10.585 10.585 10.585 27.746 0 38.331l-46.544 46.543zm165.939 149.249c-7.774-7.774-20.379-7.774-28.153 0l16.683-16.683c7.774-7.774 7.774-20.379 0-28.153-7.774-7.774-20.379-7.774-28.153 0l16.683-16.683c7.774-7.774 7.774-20.379 0-28.153-7.774-7.774-20.379-7.774-28.153 0l16.683-16.683c7.774-7.774 7.774-20.379 0-28.153-7.774-7.774-20.379-7.774-28.153 0l-108.543 108.542c-26.448 26.448-26.448 69.481 0 95.929l16.683 16.683c26.448 26.448 69.481 26.448 95.929 0l58.494-58.494c7.774-7.774 7.774-20.378 0-28.152zm-160.058-62.039 28.153-28.153-28.199-28.199c-7.774-7.774-20.379-7.774-28.153 0-7.774 7.774-7.774 20.379 0 28.153z" fill="url(#SVGID_2_)"/></g></svg>