<?xml version="1.0" encoding="UTF-8"?>
<svg xmlns="http://www.w3.org/2000/svg" xmlns:xlink="http://www.w3.org/1999/xlink" width="512" height="512" viewBox="0 0 58 58" version="1.1"><!-- Generator: Sketch 51.3 (57544) - http://www.bohemiancoding.com/sketch --><title>024 - Sign Language</title><desc>Created with Sketch.</desc><defs/><g id="Page-1" stroke="none" stroke-width="1" fill="none" fill-rule="evenodd"><g id="024---Sign-Language" fill="#FDD7AD" fill-rule="nonzero"><path d="M18.9491,49.27 L17.7391,49.8012 C16.7706988,50.2262428 15.9111835,50.8651697 15.2251,51.67 L10.4284,57.2972 C9.74640052,58.0971377 8.56153565,58.2325858 7.7166,57.6072 L0.81,52.4963 C-0.0246564016,51.8782837 -0.247399767,50.7242498 0.2973,49.84 L3.7924,44.1666 C4.43296593,43.116693 4.82502091,41.9342343 4.9386,40.7096 C5.08392008,39.0534041 5.3525314,37.4103491 5.7422,35.7941 C6.04501632,34.5697329 6.01369352,33.2865342 5.6515,32.0784 C4.20986025,26.8366596 5.2998686,21.2223786 8.5982,16.9009 C9.31452621,16.0598812 10.5768125,15.958318 11.4183895,16.6739883 C12.2599665,17.3896585 12.3625139,18.6518653 11.6475,19.494 C9.27177745,22.59642 8.43028016,26.6084532 9.3592,30.404 C10.3237,26.2567 13.006,22.1417 17.3892,18.1208 C17.9128415,17.6257498 18.6625677,17.4511873 19.3510285,17.6640177 C20.0394894,17.8768481 20.5599036,18.444061 20.7128102,19.1482589 C20.8657169,19.8524568 20.6274,20.5844175 20.0892,21.0636 C16.0144,24.8178 13.67,28.5336 13.104,32.1454 C14.4876,28.4803 18.077,25.8346 23.7834,24.2801 C24.8463104,23.9950207 25.9399501,24.6217049 26.2314214,25.6828803 C26.5228927,26.7440556 25.9028019,27.8414473 24.8434,28.1393 C20.4221,29.3373 17.7291,31.1636 16.8295,33.5679 C16.7046953,33.9102017 16.6149358,34.2642808 16.5616,34.6247 C18.1708117,32.9592975 20.3685408,31.9907659 22.6835,31.9268 C23.7455037,31.8963015 24.8038045,32.0652904 25.8035,32.425 C26.7755196,32.7605043 27.3530806,33.7595276 27.1588,34.7693 C27.0352237,35.3348004 26.6723332,35.8188473 26.1641602,36.0960151 C25.6559872,36.373183 25.0525462,36.4161928 24.5102,36.2139 C23.9580982,36.0025531 23.3690928,35.9045386 22.7783,35.9257 C21.5232324,35.9632926 20.3316831,36.4862781 19.4544,37.3846 C18.3811889,38.4833519 17.9478046,40.056452 18.3069,41.5498 C18.6536617,42.9246941 19.6559406,44.0402537 20.986,44.5317 C21.5394842,44.7406454 22.1286823,44.8386072 22.72,44.82 C23.9750652,44.782397 25.1666109,44.2594131 26.0439,43.3611 C26.4309218,42.9699468 26.7407321,42.5093364 26.9571,42.0034 C27.3054614,41.078046 28.2546096,40.52342 29.2318,40.6742 C29.8207281,40.7884376 30.3277898,41.159885 30.6143017,41.68695 C30.9008135,42.214015 30.9367932,42.841542 30.7124,43.3979 C30.2990112,44.4186427 29.6910596,45.3492503 28.9224,46.1379 C27.3199706,47.8023098 25.1246182,48.7658766 22.8148,48.8186 C22.5460667,48.8256 22.2785667,48.8199667 22.0123,48.8017 C20.968383,48.7076602 19.9172376,48.8683587 18.9491,49.27 Z" id="Shape"/><path d="M39.0509,8.73 L40.2609,8.1988 C41.2293733,7.77378314 42.0889593,7.13485457 42.7751,6.33 L47.5718,0.7028 C48.2537995,-0.0971377036 49.4386644,-0.232585786 50.2836,0.3928 L57.19,5.5037 C58.0246564,6.12171631 58.2473998,7.27575025 57.7027,8.16 L54.2076,13.8334 C53.5670341,14.883307 53.1749791,16.0657657 53.0614,17.2904 C52.9160799,18.9465959 52.6474686,20.5896509 52.2578,22.2059 C51.9549837,23.4302671 51.9863065,24.7134658 52.3485,25.9216 C53.7900402,31.1632479 52.7000365,36.7773943 49.4018,41.0988 C48.6854738,41.9398188 47.4231875,42.041382 46.5816105,41.3257117 C45.7400335,40.6100415 45.6374861,39.3478347 46.3525,38.5057 C48.7282226,35.40328 49.5697198,31.3912468 48.6408,27.5957 C47.6763,31.743 44.994,35.858 40.6108,39.8789 C40.0871585,40.3739502 39.3374323,40.5485127 38.6489715,40.3356823 C37.9605106,40.1228519 37.4400964,39.555639 37.2871898,38.8514411 C37.1342831,38.1472432 37.3726,37.4152825 37.9108,36.9361 C41.9856,33.1819 44.33,29.4661 44.896,25.8543 C43.5124,29.5194 39.923,32.1651 34.2166,33.7196 C33.1536896,34.0046793 32.0600499,33.3779951 31.7685786,32.3168197 C31.4771073,31.2556444 32.0971981,30.1582527 33.1566,29.8604 C37.5779,28.6624 40.2709,26.8361 41.1705,24.4318 C41.2953047,24.0894983 41.3850642,23.7354192 41.4384,23.375 C39.8291883,25.0404025 37.6314592,26.0089341 35.3165,26.0729 C34.2544963,26.1033985 33.1961955,25.9344096 32.1965,25.5747 C31.2243113,25.2396936 30.6462396,24.2409698 30.84,23.2311 C30.9635763,22.6655996 31.3264668,22.1815527 31.8346398,21.9043849 C32.3428128,21.627217 32.9462538,21.5842072 33.4886,21.7865 C34.0407018,21.9978469 34.6297072,22.0958614 35.2205,22.0747 C36.4755676,22.0371074 37.6671169,21.5141219 38.5444,20.6158 C39.6176111,19.5170481 40.0509954,17.943948 39.6919,16.4506 C39.3451383,15.0757059 38.3428594,13.9601463 37.0128,13.4687 C36.4599661,13.2600608 35.8715086,13.1621375 35.2809,13.1805 C34.0258348,13.218103 32.8342891,13.7410869 31.957,14.6394 C31.5699782,15.0305532 31.2601679,15.4911636 31.0438,15.9971 C30.6954386,16.922454 29.7462904,17.47708 28.7691,17.3263 C28.1801719,17.2120624 27.6731102,16.840615 27.3865983,16.31355 C27.1000865,15.786485 27.0641068,15.158958 27.2885,14.6026 C27.7018888,13.5818573 28.3098404,12.6512497 29.0785,11.8626 C30.6809294,10.1981902 32.8762818,9.23462336 35.1861,9.1819 C35.4547667,9.1749 35.7222667,9.18053333 35.9886,9.1988 C37.0322597,9.29253445 38.0830801,9.13166693 39.0509,8.73 Z" id="Shape"/></g></g></svg>
